<svg xmlns="http://www.w3.org/2000/svg"
 xmlns:xlink="http://www.w3.org/1999/xlink"
 width="250px" height="250px"  viewBox="0 0 250 250">
<path fill-rule="evenodd"  fill="transparent"
 d="M-225.0,1.2207031E-4 C-155.96436,1.2207031E-4 -100.0,55.964478 -100.0,125.00012 C-100.0,194.03577 -155.96436,250.00012 -225.0,250.00012 C-294.03558,250.00012 -350.0,194.03577 -350.0,125.00012 C-350.0,55.964478 -294.03558,1.2207031E-4 -225.0,1.2207031E-4 ZM125.0,1.2207031E-4 C194.03564,1.2207031E-4 250.0,55.964478 250.0,125.00012 C250.0,194.03577 194.03564,250.00012 125.0,250.00012 C55.964478,250.00012 0.0,194.03577 0.0,125.00012 C0.0,55.964478 55.964478,1.2207031E-4 125.0,1.2207031E-4 Z"/>
</svg>