<svg xmlns="http://www.w3.org/2000/svg"
 xmlns:xlink="http://www.w3.org/1999/xlink"
 width="250px" height="250px"  viewBox="0 0 250 250">
<path fill-rule="evenodd"  fill="transparent"
 d="M-224.0,3.6621094E-4 C-154.96436,3.6621094E-4 -99.0,55.96472 -99.0,125.00037 C-99.0,194.03589 -154.96436,250.00024 -224.0,250.00024 C-293.03558,250.00024 -349.0,194.03589 -349.0,125.00037 C-349.0,55.96472 -293.03558,3.6621094E-4 -224.0,3.6621094E-4 ZM126.0,3.6621094E-4 C195.03564,3.6621094E-4 251.0,55.96472 251.0,125.00037 C251.0,194.03589 195.03564,250.00024 126.0,250.00024 C56.964478,250.00024 1.0,194.03589 1.0,125.00037 C1.0,55.96472 56.964478,3.6621094E-4 126.0,3.6621094E-4 Z"/>
</svg>