<svg xmlns="http://www.w3.org/2000/svg"
 xmlns:xlink="http://www.w3.org/1999/xlink"
 width="103px" height="24px"  viewBox="0 0 103 24">
<path fill-rule="evenodd"  fill="transparent"
 d="M51.0,1.0062256 C51.0,1.0062256 61.993958,12.0 61.993958,12.0 C61.993958,12.0 51.0,22.994019 51.0,22.994019 C51.0,22.994019 40.006165,12.0 40.006165,12.0 C40.006165,12.0 51.0,1.0062256 51.0,1.0062256 ZM1.0,12.0 C1.0,12.0 1.0,11.000122 1.0,11.000122 C1.0,11.000122 26.0,11.000122 26.0,11.000122 C26.0,11.000122 26.0,12.0 26.0,12.0 C26.0,12.0 1.0,12.0 1.0,12.0 ZM76.00006,12.0 C76.00006,12.0 76.00006,11.000122 76.00006,11.000122 C76.00006,11.000122 101.00006,11.000122 101.00006,11.000122 C101.00006,11.000122 101.00006,12.0 101.00006,12.0 C101.00006,12.0 76.00006,12.0 76.00006,12.0 Z"/>
</svg>